<svg enable-background="new 0 0 64 64" height="64" viewBox="0 0 64 64" width="64" xmlns="http://www.w3.org/2000/svg"><path d="m32 0c-13.256 0-24 10.746-24 24 0 3.631.906 7.844 2.463 10.418.057.26 20.326 28.744 20.326 28.744.375.526.981.838 1.627.838h.02c.652-.006 1.262-.332 1.631-.869 0 0 19.24-28.162 19.279-28.242 1.82-3.157 2.654-7.018 2.654-10.889 0-13.254-10.744-24-24-24zm17.943 32.869-17.562 25.643-18.338-25.674c-1.449-2.369-2.043-5.725-2.043-8.838 0-11.047 8.955-20 20-20s20 8.953 20 20c0 3.113-.594 6.5-2.057 8.869z" fill="#394240"/><path d="m32 12c-6.627 0-12 5.373-12 12s5.373 12 12 12 12-5.373 12-12-5.373-12-12-12zm0 20c-4.418 0-8-3.582-8-8s3.582-8 8-8 8 3.582 8 8-3.582 8-8 8z" fill="#394240"/><path d="m32 4c-11.045 0-20 8.953-20 20 0 3.113.594 6.469 2.043 8.838l18.338 25.674 17.562-25.643c1.463-2.369 2.057-5.756 2.057-8.869 0-11.047-8.955-20-20-20zm0 32.002c-6.627 0-12-5.373-12-12s5.373-12 12-12 12 5.373 12 12-5.373 12-12 12z" fill="#f76d57"/></svg>